<svg width="77" height="63" viewBox="0 0 77 63" fill="none" xmlns="http://www.w3.org/2000/svg"><path d="M1 23L0.358364 22.233C0.144873 22.4116 0.0154773 22.6711 0.00129831 22.9491C-0.0128807 23.227 0.0894402 23.4984 0.283651 23.6977L1 23ZM8.79221 31L8.07586 31.6977C8.43835 32.0699 9.02544 32.1025 9.4269 31.7728L8.79221 31ZM18.5325 23H19.5325C19.5325 22.6133 19.3095 22.2612 18.9598 22.0959C18.6102 21.9306 18.1966 21.9818 17.8978 22.2272L18.5325 23ZM18.5325 62H17.5325C17.5325 62.5523 17.9802 63 18.5325 63V62ZM58.4675 62V63C59.0198 63 59.4675 62.5523 59.4675 62H58.4675ZM27.2987 1L28.0934 0.392933C27.9277 0.176077 27.6806 0.0363455 27.4094 0.00614321C27.1382 -0.0240591 26.8664 0.057892 26.6571 0.232991L27.2987 1ZM76 23L76.7163 23.6977C76.9106 23.4984 77.0129 23.227 76.9987 22.9491C76.9845 22.6711 76.8551 22.4116 76.6416 22.233L76 23ZM68.2078 31L67.5731 31.7728C67.9746 32.1025 68.5617 32.0699 68.9241 31.6977L68.2078 31ZM58.4675 23L59.1022 22.2272C58.8034 21.9818 58.3898 21.9306 58.0402 22.0959C57.6905 22.2612 57.4675 22.6133 57.4675 23H58.4675ZM49.7013 1L50.3429 0.232991C50.1336 0.057892 49.8618 -0.0240591 49.5906 0.00614321C49.3194 0.0363455 49.0723 0.176077 48.9067 0.392933L49.7013 1ZM0.608327 24.0311C0.993679 24.4267 1.62679 24.435 2.02242 24.0497C2.41805 23.6643 2.42638 23.0312 2.04102 22.6356L0.608327 24.0311ZM5.28778 25.9689C4.90242 25.5733 4.26931 25.565 3.87369 25.9503C3.47806 26.3357 3.46973 26.9688 3.85508 27.3644L5.28778 25.9689ZM4.50443 28.0311C4.88978 28.4267 5.52289 28.435 5.91852 28.0497C6.31415 27.6643 6.32248 27.0312 5.93713 26.6356L4.50443 28.0311ZM9.18388 29.9689C8.79853 29.5733 8.16542 29.565 7.76979 29.9503C7.37416 30.3357 7.36583 30.9688 7.75118 31.3644L9.18388 29.9689ZM9.83275 31.4394C10.2595 31.0889 10.3213 30.4588 9.97081 30.032C9.62028 29.6052 8.99014 29.5434 8.56336 29.8939L9.83275 31.4394ZM12.6218 26.5606C12.195 26.9111 12.1332 27.5412 12.4837 27.968C12.8343 28.3948 13.4644 28.4566 13.8912 28.1061L12.6218 26.5606ZM14.7029 27.4394C15.1297 27.0889 15.1915 26.4588 14.8409 26.032C14.4904 25.6052 13.8603 25.5434 13.4335 25.8939L14.7029 27.4394ZM17.4919 22.5606C17.0651 22.9111 17.0033 23.5412 17.3539 23.968C17.7044 24.3948 18.3345 24.4566 18.7613 24.1061L17.4919 22.5606ZM17.5325 23.4643C17.5325 24.0166 17.9802 24.4643 18.5325 24.4643C19.0848 24.4643 19.5325 24.0166 19.5325 23.4643H17.5325ZM19.5325 28.1071C19.5325 27.5549 19.0848 27.1071 18.5325 27.1071C17.9802 27.1071 17.5325 27.5549 17.5325 28.1071H19.5325ZM17.5325 29.0357C17.5325 29.588 17.9802 30.0357 18.5325 30.0357C19.0848 30.0357 19.5325 29.588 19.5325 29.0357H17.5325ZM19.5325 33.6786C19.5325 33.1263 19.0848 32.6786 18.5325 32.6786C17.9802 32.6786 17.5325 33.1263 17.5325 33.6786H19.5325ZM17.5325 34.6071C17.5325 35.1594 17.9802 35.6071 18.5325 35.6071C19.0848 35.6071 19.5325 35.1594 19.5325 34.6071H17.5325ZM19.5325 39.25C19.5325 38.6977 19.0848 38.25 18.5325 38.25C17.9802 38.25 17.5325 38.6977 17.5325 39.25H19.5325ZM17.5325 40.1786C17.5325 40.7309 17.9802 41.1786 18.5325 41.1786C19.0848 41.1786 19.5325 40.7309 19.5325 40.1786H17.5325ZM19.5325 44.8214C19.5325 44.2691 19.0848 43.8214 18.5325 43.8214C17.9802 43.8214 17.5325 44.2691 17.5325 44.8214H19.5325ZM17.5325 45.75C17.5325 46.3023 17.9802 46.75 18.5325 46.75C19.0848 46.75 19.5325 46.3023 19.5325 45.75H17.5325ZM19.5325 50.3929C19.5325 49.8406 19.0848 49.3929 18.5325 49.3929C17.9802 49.3929 17.5325 49.8406 17.5325 50.3929H19.5325ZM17.5325 51.3214C17.5325 51.8737 17.9802 52.3214 18.5325 52.3214C19.0848 52.3214 19.5325 51.8737 19.5325 51.3214H17.5325ZM19.5325 55.9643C19.5325 55.412 19.0848 54.9643 18.5325 54.9643C17.9802 54.9643 17.5325 55.412 17.5325 55.9643H19.5325ZM17.5325 56.8929C17.5325 57.4451 17.9802 57.8929 18.5325 57.8929C19.0848 57.8929 19.5325 57.4451 19.5325 56.8929H17.5325ZM19.5325 61.5357C19.5325 60.9834 19.0848 60.5357 18.5325 60.5357C17.9802 60.5357 17.5325 60.9834 17.5325 61.5357H19.5325ZM19.0079 63C19.5602 63 20.0079 62.5523 20.0079 62C20.0079 61.4477 19.5602 61 19.0079 61V63ZM23.7621 61C23.2098 61 22.7621 61.4477 22.7621 62C22.7621 62.5523 23.2098 63 23.7621 63V61ZM24.7129 63C25.2652 63 25.7129 62.5523 25.7129 62C25.7129 61.4477 25.2652 61 24.7129 61V63ZM29.4671 61C28.9148 61 28.4671 61.4477 28.4671 62C28.4671 62.5523 28.9148 63 29.4671 63V61ZM30.4179 63C30.9702 63 31.4179 62.5523 31.4179 62C31.4179 61.4477 30.9702 61 30.4179 61V63ZM35.1721 61C34.6198 61 34.1721 61.4477 34.1721 62C34.1721 62.5523 34.6198 63 35.1721 63V61ZM36.1229 63C36.6752 63 37.1229 62.5523 37.1229 62C37.1229 61.4477 36.6752 61 36.1229 61V63ZM40.8771 61C40.3248 61 39.8771 61.4477 39.8771 62C39.8771 62.5523 40.3248 63 40.8771 63V61ZM41.8279 63C42.3802 63 42.8279 62.5523 42.8279 62C42.8279 61.4477 42.3802 61 41.8279 61V63ZM46.5821 61C46.0298 61 45.5821 61.4477 45.5821 62C45.5821 62.5523 46.0298 63 46.5821 63V61ZM47.5329 63C48.0852 63 48.5329 62.5523 48.5329 62C48.5329 61.4477 48.0852 61 47.5329 61V63ZM52.2871 61C51.7348 61 51.2871 61.4477 51.2871 62C51.2871 62.5523 51.7348 63 52.2871 63V61ZM53.2379 63C53.7902 63 54.2379 62.5523 54.2379 62C54.2379 61.4477 53.7902 61 53.2379 61V63ZM57.9921 61C57.4398 61 56.9921 61.4477 56.9921 62C56.9921 62.5523 57.4398 63 57.9921 63V61ZM59.4675 61.5357C59.4675 60.9834 59.0198 60.5357 58.4675 60.5357C57.9152 60.5357 57.4675 60.9834 57.4675 61.5357H59.4675ZM57.4675 56.8929C57.4675 57.4451 57.9152 57.8929 58.4675 57.8929C59.0198 57.8929 59.4675 57.4451 59.4675 56.8929H57.4675ZM59.4675 55.9643C59.4675 55.412 59.0198 54.9643 58.4675 54.9643C57.9152 54.9643 57.4675 55.412 57.4675 55.9643H59.4675ZM57.4675 51.3214C57.4675 51.8737 57.9152 52.3214 58.4675 52.3214C59.0198 52.3214 59.4675 51.8737 59.4675 51.3214H57.4675ZM59.4675 50.3929C59.4675 49.8406 59.0198 49.3929 58.4675 49.3929C57.9152 49.3929 57.4675 49.8406 57.4675 50.3929H59.4675ZM57.4675 45.75C57.4675 46.3023 57.9152 46.75 58.4675 46.75C59.0198 46.75 59.4675 46.3023 59.4675 45.75H57.4675ZM59.4675 44.8214C59.4675 44.2691 59.0198 43.8214 58.4675 43.8214C57.9152 43.8214 57.4675 44.2691 57.4675 44.8214H59.4675ZM57.4675 40.1786C57.4675 40.7309 57.9152 41.1786 58.4675 41.1786C59.0198 41.1786 59.4675 40.7309 59.4675 40.1786H57.4675ZM59.4675 39.25C59.4675 38.6977 59.0198 38.25 58.4675 38.25C57.9152 38.25 57.4675 38.6977 57.4675 39.25H59.4675ZM57.4675 34.6071C57.4675 35.1594 57.9152 35.6071 58.4675 35.6071C59.0198 35.6071 59.4675 35.1594 59.4675 34.6071H57.4675ZM59.4675 33.6786C59.4675 33.1263 59.0198 32.6786 58.4675 32.6786C57.9152 32.6786 57.4675 33.1263 57.4675 33.6786H59.4675ZM57.4675 29.0357C57.4675 29.588 57.9152 30.0357 58.4675 30.0357C59.0198 30.0357 59.4675 29.588 59.4675 29.0357H57.4675ZM59.4675 28.1071C59.4675 27.5549 59.0198 27.1071 58.4675 27.1071C57.9152 27.1071 57.4675 27.5549 57.4675 28.1071H59.4675ZM57.4675 23.4643C57.4675 24.0166 57.9152 24.4643 58.4675 24.4643C59.0198 24.4643 59.4675 24.0166 59.4675 23.4643H57.4675ZM58.2387 24.1061C58.6655 24.4566 59.2956 24.3948 59.6461 23.968C59.9967 23.5412 59.9349 22.9111 59.5081 22.5606L58.2387 24.1061ZM63.5665 25.8939C63.1397 25.5434 62.5096 25.6052 62.1591 26.032C61.8085 26.4588 61.8703 27.0889 62.2971 27.4394L63.5665 25.8939ZM63.1088 28.1061C63.5356 28.4566 64.1657 28.3948 64.5163 27.968C64.8668 27.5412 64.805 26.9111 64.3782 26.5606L63.1088 28.1061ZM68.4366 29.8939C68.0099 29.5434 67.3797 29.6052 67.0292 30.032C66.6786 30.4588 66.7405 31.0889 67.1673 31.4394L68.4366 29.8939ZM69.2488 31.3644C69.6342 30.9688 69.6258 30.3357 69.2302 29.9503C68.8346 29.565 68.2015 29.5733 67.8161 29.9689L69.2488 31.3644ZM71.0629 26.6356C70.6775 27.0312 70.6859 27.6643 71.0815 28.0497C71.4771 28.435 72.1102 28.4267 72.4956 28.0311L71.0629 26.6356ZM73.1449 27.3644C73.5303 26.9688 73.5219 26.3357 73.1263 25.9503C72.7307 25.565 72.0976 25.5733 71.7122 25.9689L73.1449 27.3644ZM74.959 22.6356C74.5736 23.0312 74.582 23.6643 74.9776 24.0497C75.3732 24.435 76.0063 24.4267 76.3917 24.0311L74.959 22.6356ZM76.2764 21.9274C75.8528 21.5731 75.2221 21.6292 74.8677 22.0528C74.5134 22.4764 74.5695 23.1071 74.9931 23.4615L76.2764 21.9274ZM71.3405 20.4059C71.7641 20.7603 72.3948 20.7041 72.7492 20.2805C73.1035 19.8569 73.0474 19.2262 72.6238 18.8719L71.3405 20.4059ZM71.8933 18.2608C71.4697 17.9064 70.839 17.9625 70.4846 18.3861C70.1302 18.8097 70.1864 19.4404 70.61 19.7948L71.8933 18.2608ZM66.9574 16.7392C67.381 17.0936 68.0117 17.0375 68.366 16.6139C68.7204 16.1903 68.6643 15.5596 68.2407 15.2052L66.9574 16.7392ZM67.5101 14.5941C67.0865 14.2397 66.4559 14.2959 66.1015 14.7195C65.7471 15.1431 65.8033 15.7738 66.2269 16.1281L67.5101 14.5941ZM62.5743 13.0726C62.9979 13.4269 63.6286 13.3708 63.9829 12.9472C64.3373 12.5236 64.2812 11.8929 63.8575 11.5385L62.5743 13.0726ZM63.127 10.9274C62.7034 10.5731 62.0727 10.6292 61.7184 11.0528C61.364 11.4764 61.4201 12.1071 61.8438 12.4615L63.127 10.9274ZM58.1912 9.4059C58.6148 9.76026 59.2454 9.70413 59.5998 9.28053C59.9542 8.85692 59.898 8.22625 59.4744 7.87188L58.1912 9.4059ZM58.7439 7.26077C58.3203 6.9064 57.6896 6.96253 57.3353 7.38614C56.9809 7.80975 57.037 8.44042 57.4606 8.79479L58.7439 7.26077ZM53.808 5.73923C54.2316 6.0936 54.8623 6.03747 55.2167 5.61386C55.571 5.19025 55.5149 4.55958 55.0913 4.20521L53.808 5.73923ZM54.3608 3.5941C53.9372 3.23973 53.3065 3.29587 52.9521 3.71947C52.5978 4.14308 52.6539 4.77375 53.0775 5.12812L54.3608 3.5941ZM49.4249 2.07256C49.8485 2.42693 50.4792 2.3708 50.8336 1.94719C51.1879 1.52358 51.1318 0.892911 50.7082 0.538545L49.4249 2.07256ZM48.5993 0.76212C48.2368 1.17877 48.2807 1.81041 48.6973 2.17293C49.114 2.53546 49.7456 2.49158 50.1081 2.07493L48.5993 0.76212ZM45.7327 5.79776C46.2022 5.50706 46.3473 4.89073 46.0566 4.42114C45.7659 3.95155 45.1495 3.80653 44.6799 4.09723L45.7327 5.79776ZM43.7916 4.60623C43.3031 4.86385 43.1159 5.46872 43.3735 5.95723C43.6311 6.44575 44.236 6.63293 44.7245 6.37531L43.7916 4.60623ZM39.0966 7.98512C39.6482 7.95763 40.073 7.48818 40.0456 6.93658C40.0181 6.38498 39.5486 5.96011 38.997 5.9876L39.0966 7.98512ZM38.003 5.9876C37.4514 5.96011 36.9819 6.38498 36.9544 6.93658C36.927 7.48818 37.3518 7.95763 37.9034 7.98512L38.003 5.9876ZM32.2755 6.37531C32.764 6.63293 33.3689 6.44575 33.6265 5.95723C33.8841 5.46872 33.6969 4.86385 33.2084 4.60623L32.2755 6.37531ZM32.3201 4.09723C31.8505 3.80654 31.2341 3.95155 30.9434 4.42114C30.6527 4.89073 30.7978 5.50706 31.2673 5.79776L32.3201 4.09723ZM26.8919 2.07493C27.2544 2.49158 27.886 2.53546 28.3027 2.17293C28.7193 1.81041 28.7632 1.17877 28.4007 0.76212L26.8919 2.07493ZM26.2918 0.538546C25.8682 0.892912 25.8121 1.52358 26.1664 1.94719C26.5208 2.3708 27.1515 2.42693 27.5751 2.07256L26.2918 0.538546ZM23.9225 5.12812C24.3461 4.77375 24.4022 4.14308 24.0479 3.71947C23.6935 3.29587 23.0628 3.23974 22.6392 3.5941L23.9225 5.12812ZM21.9087 4.20521C21.4851 4.55958 21.4289 5.19025 21.7833 5.61386C22.1377 6.03747 22.7684 6.0936 23.192 5.73923L21.9087 4.20521ZM19.5394 8.79479C19.963 8.44042 20.0191 7.80975 19.6647 7.38614C19.3104 6.96253 18.6797 6.9064 18.2561 7.26077L19.5394 8.79479ZM17.5256 7.87188C17.102 8.22625 17.0458 8.85692 17.4002 9.28053C17.7546 9.70413 18.3852 9.76026 18.8088 9.4059L17.5256 7.87188ZM15.1562 12.4615C15.5799 12.1071 15.636 11.4764 15.2816 11.0528C14.9273 10.6292 14.2966 10.5731 13.873 10.9274L15.1562 12.4615ZM13.1425 11.5385C12.7188 11.8929 12.6627 12.5236 13.0171 12.9472C13.3714 13.3708 14.0021 13.4269 14.4257 13.0726L13.1425 11.5385ZM10.7731 16.1281C11.1967 15.7738 11.2529 15.1431 10.8985 14.7195C10.5441 14.2959 9.91346 14.2397 9.48986 14.5941L10.7731 16.1281ZM8.75934 15.2052C8.33573 15.5596 8.2796 16.1903 8.63396 16.6139C8.98833 17.0375 9.619 17.0936 10.0426 16.7392L8.75934 15.2052ZM6.39001 19.7948C6.81362 19.4404 6.86975 18.8097 6.51538 18.3861C6.16102 17.9625 5.53035 17.9064 5.10674 18.2608L6.39001 19.7948ZM4.37622 18.8719C3.95261 19.2262 3.89648 19.8569 4.25085 20.2805C4.60521 20.7041 5.23588 20.7603 5.65949 20.4059L4.37622 18.8719ZM2.00689 23.4615C2.4305 23.1071 2.48663 22.4764 2.13227 22.0528C1.7779 21.6292 1.14723 21.5731 0.723622 21.9274L2.00689 23.4615ZM0.283651 23.6977L0.608327 24.0311L2.04102 22.6356L1.71635 22.3023L0.283651 23.6977ZM3.85508 27.3644L4.50443 28.0311L5.93713 26.6356L5.28778 25.9689L3.85508 27.3644ZM7.75118 31.3644L8.07586 31.6977L9.50856 30.3023L9.18388 29.9689L7.75118 31.3644ZM9.4269 31.7728L9.83275 31.4394L8.56336 29.8939L8.15751 30.2272L9.4269 31.7728ZM13.8912 28.1061L14.7029 27.4394L13.4335 25.8939L12.6218 26.5606L13.8912 28.1061ZM18.7613 24.1061L19.1672 23.7728L17.8978 22.2272L17.4919 22.5606L18.7613 24.1061ZM17.5325 23V23.4643H19.5325V23H17.5325ZM17.5325 28.1071V29.0357H19.5325V28.1071H17.5325ZM17.5325 33.6786V34.6071H19.5325V33.6786H17.5325ZM17.5325 39.25V40.1786H19.5325V39.25H17.5325ZM17.5325 44.8214V45.75H19.5325V44.8214H17.5325ZM17.5325 50.3929V51.3214H19.5325V50.3929H17.5325ZM17.5325 55.9643V56.8929H19.5325V55.9643H17.5325ZM17.5325 61.5357V62H19.5325V61.5357H17.5325ZM18.5325 63H19.0079V61H18.5325V63ZM23.7621 63H24.7129V61H23.7621V63ZM29.4671 63H30.4179V61H29.4671V63ZM35.1721 63H36.1229V61H35.1721V63ZM40.8771 63H41.8279V61H40.8771V63ZM46.5821 63H47.5329V61H46.5821V63ZM52.2871 63H53.2379V61H52.2871V63ZM57.9921 63H58.4675V61H57.9921V63ZM59.4675 62V61.5357H57.4675V62H59.4675ZM59.4675 56.8929V55.9643H57.4675V56.8929H59.4675ZM59.4675 51.3214V50.3929H57.4675V51.3214H59.4675ZM59.4675 45.75V44.8214H57.4675V45.75H59.4675ZM59.4675 40.1786V39.25H57.4675V40.1786H59.4675ZM59.4675 34.6071V33.6786H57.4675V34.6071H59.4675ZM59.4675 29.0357V28.1071H57.4675V29.0357H59.4675ZM59.4675 23.4643V23H57.4675V23.4643H59.4675ZM57.8328 23.7728L58.2387 24.1061L59.5081 22.5606L59.1022 22.2272L57.8328 23.7728ZM62.2971 27.4394L63.1088 28.1061L64.3782 26.5606L63.5665 25.8939L62.2971 27.4394ZM67.1673 31.4394L67.5731 31.7728L68.8425 30.2272L68.4366 29.8939L67.1673 31.4394ZM68.9241 31.6977L69.2488 31.3644L67.8161 29.9689L67.4914 30.3023L68.9241 31.6977ZM72.4956 28.0311L73.1449 27.3644L71.7122 25.9689L71.0629 26.6356L72.4956 28.0311ZM76.3917 24.0311L76.7163 23.6977L75.2837 22.3023L74.959 22.6356L76.3917 24.0311ZM76.6416 22.233L76.2764 21.9274L74.9931 23.4615L75.3584 23.767L76.6416 22.233ZM72.6238 18.8719L71.8933 18.2608L70.61 19.7948L71.3405 20.4059L72.6238 18.8719ZM68.2407 15.2052L67.5101 14.5941L66.2269 16.1281L66.9574 16.7392L68.2407 15.2052ZM63.8575 11.5385L63.127 10.9274L61.8438 12.4615L62.5743 13.0726L63.8575 11.5385ZM59.4744 7.87188L58.7439 7.26077L57.4606 8.79479L58.1912 9.4059L59.4744 7.87188ZM55.0913 4.20521L54.3608 3.5941L53.0775 5.12812L53.808 5.73923L55.0913 4.20521ZM50.7082 0.538545L50.3429 0.232991L49.0597 1.76701L49.4249 2.07256L50.7082 0.538545ZM49.7013 1C48.9067 0.392933 48.9067 0.39289 48.9067 0.392847C48.9067 0.392834 48.9068 0.392792 48.9068 0.392766C48.9068 0.392712 48.9069 0.392661 48.9069 0.392612C48.907 0.392515 48.907 0.392427 48.9071 0.392348C48.9072 0.392191 48.9073 0.392071 48.9074 0.391989C48.9075 0.391825 48.9075 0.39181 48.9074 0.391944C48.9072 0.392211 48.9065 0.393071 48.9054 0.394511C48.9032 0.397391 48.8991 0.402591 48.8933 0.410013C48.8816 0.424861 48.8628 0.448587 48.8369 0.480414C48.7852 0.544086 48.7055 0.640057 48.5993 0.76212L50.1081 2.07493C50.2301 1.9348 50.3242 1.82151 50.3892 1.74147C50.4218 1.70144 50.447 1.66969 50.4649 1.64703C50.4738 1.6357 50.4808 1.62664 50.486 1.61995C50.4886 1.6166 50.4907 1.61385 50.4924 1.6117C50.4932 1.61062 50.4939 1.6097 50.4945 1.60892C50.4948 1.60854 50.4951 1.60819 50.4953 1.60788C50.4954 1.60773 50.4956 1.60758 50.4957 1.60744C50.4957 1.60738 50.4958 1.60731 50.4958 1.60725C50.4958 1.60722 50.4959 1.60717 50.4959 1.60716C50.4959 1.60711 50.4959 1.60707 49.7013 1ZM44.6799 4.09723C44.395 4.27362 44.0987 4.4443 43.7916 4.60623L44.7245 6.37531C45.0748 6.1906 45.4111 5.99685 45.7327 5.79776L44.6799 4.09723ZM38.997 5.9876C38.8327 5.99579 38.6671 6 38.5 6V8C38.7006 8 38.8995 7.99495 39.0966 7.98512L38.997 5.9876ZM38.5 6C38.3329 6 38.1673 5.99579 38.003 5.9876L37.9034 7.98512C38.1005 7.99495 38.2994 8 38.5 8V6ZM33.2084 4.60623C32.9013 4.4443 32.605 4.27362 32.3201 4.09723L31.2673 5.79776C31.5889 5.99685 31.9252 6.19061 32.2755 6.37531L33.2084 4.60623ZM28.4007 0.76212C28.2945 0.640057 28.2148 0.544087 28.1631 0.480414C28.1372 0.448587 28.1184 0.424861 28.1067 0.410014C28.1009 0.402591 28.0968 0.397391 28.0946 0.394511C28.0935 0.393071 28.0928 0.392211 28.0926 0.391944C28.0925 0.39181 28.0925 0.391825 28.0926 0.391989C28.0927 0.392072 28.0928 0.392191 28.0929 0.392348C28.093 0.392427 28.093 0.392515 28.0931 0.392612C28.0931 0.392661 28.0932 0.392712 28.0932 0.392766C28.0932 0.392792 28.0933 0.392834 28.0933 0.392848C28.0933 0.39289 28.0934 0.392933 27.2987 1C26.5041 1.60707 26.5041 1.60711 26.5041 1.60716C26.5041 1.60717 26.5042 1.60722 26.5042 1.60725C26.5042 1.60731 26.5043 1.60738 26.5043 1.60744C26.5044 1.60758 26.5046 1.60773 26.5047 1.60788C26.5049 1.60819 26.5052 1.60854 26.5055 1.60892C26.5061 1.6097 26.5068 1.61062 26.5076 1.6117C26.5093 1.61385 26.5114 1.6166 26.514 1.61995C26.5192 1.62664 26.5262 1.6357 26.5351 1.64703C26.553 1.66969 26.5782 1.70144 26.6108 1.74147C26.6758 1.82151 26.7699 1.9348 26.8919 2.07493L28.4007 0.76212ZM26.6571 0.232991L26.2918 0.538546L27.5751 2.07256L27.9403 1.76701L26.6571 0.232991ZM22.6392 3.5941L21.9087 4.20521L23.192 5.73923L23.9225 5.12812L22.6392 3.5941ZM18.2561 7.26077L17.5256 7.87188L18.8088 9.4059L19.5394 8.79479L18.2561 7.26077ZM13.873 10.9274L13.1425 11.5385L14.4257 13.0726L15.1562 12.4615L13.873 10.9274ZM9.48986 14.5941L8.75934 15.2052L10.0426 16.7392L10.7731 16.1281L9.48986 14.5941ZM5.10674 18.2608L4.37622 18.8719L5.65949 20.4059L6.39001 19.7948L5.10674 18.2608ZM0.723622 21.9274L0.358364 22.233L1.64164 23.767L2.00689 23.4615L0.723622 21.9274Z" fill="#222222"/></svg>